<svg width="44" height="44" viewBox="0 0 44 44" fill="none" xmlns="http://www.w3.org/2000/svg">
<g clip-path="url(#clip0_1200_2025)">
<rect width="44" height="44" fill="#2B788B"/>
<path d="M9.74858 24.8948H25.2032V39.8789H18.8331L18.0731 33.4727C17.3492 35.7649 16.0583 37.466 14.2004 38.5759C12.3424 39.6859 10.0743 40.2408 7.39602 40.2408C4.95899 40.2408 2.78739 39.6979 0.881208 38.6121C-1.00085 37.5263 -2.48478 35.97 -3.57058 33.9432C-4.63225 31.9164 -5.16309 29.5517 -5.16309 26.8493C-5.16309 22.5302 -3.87219 19.116 -1.2904 16.6066C1.2914 14.0972 5.30886 12.8425 10.762 12.8425C13.8746 12.8425 16.6133 13.3492 18.9779 14.3626C21.3667 15.376 23.3935 16.9444 25.0584 19.0677C23.9726 19.6227 21.8492 20.7326 18.6883 22.3975L17.7835 22.9042C16.8425 21.9632 15.7446 21.2634 14.4899 20.805C13.2352 20.3224 11.9081 20.0811 10.5086 20.0811C8.19227 20.0811 6.46705 20.6964 5.33299 21.927C4.19893 23.1334 3.63191 24.6294 3.63191 26.415C3.63191 28.3453 4.23513 29.9016 5.44157 31.0839C6.67215 32.2662 8.54214 32.8574 11.0515 32.8574C12.1373 32.8574 13.187 32.7006 14.2004 32.3869C15.2379 32.0732 16.1066 31.5303 16.8063 30.7582H9.74858V24.8948Z" fill="white"/>
<path d="M49.1632 11.3604C45.3749 11.2397 41.6953 11.1673 38.1242 11.1432V30.0361H29.0758V11.1432C25.4806 11.1673 21.813 11.2397 18.0731 11.3604V3.75976H49.1632V11.3604Z" fill="white"/>
</g>
<defs>
<clipPath id="clip0_1200_2025">
<rect width="44" height="44" fill="white"/>
</clipPath>
</defs>
</svg>
